<svg xmlns="http://www.w3.org/2000/svg" width="77" height="77" viewBox="0 0 77 77">
  <g id="Wallet_Balance" data-name="Wallet Balance" transform="translate(-800 -212)">
    <g id="Path_15725" data-name="Path 15725" transform="translate(800 212)" fill="#fff">
      <path d="M 38.5 76.5 C 33.36980819702148 76.5 28.39335060119629 75.495361328125 23.70883941650391 73.51397705078125 C 19.18388938903809 71.60008239746094 15.11995983123779 68.86006927490234 11.62994003295898 65.37006378173828 C 8.13992977142334 61.88003921508789 5.399919986724854 57.81610870361328 3.486020088195801 53.29116058349609 C 1.504639983177185 48.60665130615234 0.5 43.63019180297852 0.5 38.5 C 0.5 33.36980819702148 1.504639983177185 28.39335060119629 3.486020088195801 23.70883941650391 C 5.399919986724854 19.18388938903809 8.13992977142334 15.11995983123779 11.62994003295898 11.62994003295898 C 15.11995983123779 8.13992977142334 19.18388938903809 5.399919986724854 23.70883941650391 3.486020088195801 C 28.39335060119629 1.504639983177185 33.36980819702148 0.5 38.5 0.5 C 43.63019180297852 0.5 48.60665130615234 1.504639983177185 53.29116058349609 3.486020088195801 C 57.81610870361328 5.399919986724854 61.88003921508789 8.13992977142334 65.37006378173828 11.62994003295898 C 68.86006927490234 15.11995983123779 71.60008239746094 19.18388938903809 73.51397705078125 23.70883941650391 C 75.495361328125 28.39335060119629 76.5 33.36980819702148 76.5 38.5 C 76.5 43.63019180297852 75.495361328125 48.60665130615234 73.51397705078125 53.29116058349609 C 71.60008239746094 57.81610870361328 68.86006927490234 61.88003921508789 65.37006378173828 65.37006378173828 C 61.88003921508789 68.86006927490234 57.81610870361328 71.60008239746094 53.29116058349609 73.51397705078125 C 48.60665130615234 75.495361328125 43.63019180297852 76.5 38.5 76.5 Z" stroke="none"/>
      <path d="M 38.5 1 C 33.43708801269531 1 28.52615737915039 1.991355895996094 23.90361022949219 3.946525573730469 C 19.43825531005859 5.835212707519531 15.42775726318359 8.539230346679688 11.98348999023438 11.98348999023438 C 8.539230346679688 15.42775726318359 5.835212707519531 19.43825531005859 3.946525573730469 23.90361022949219 C 1.991355895996094 28.52615737915039 1 33.43708801269531 1 38.5 C 1 43.56291198730469 1.991355895996094 48.47384643554688 3.946525573730469 53.09638977050781 C 5.835212707519531 57.56174468994141 8.539230346679688 61.57224273681641 11.98348999023438 65.01651000976562 C 15.42775726318359 68.46076965332031 19.43825531005859 71.16478729248047 23.90361022949219 73.05347442626953 C 28.52615737915039 75.00864410400391 33.43708801269531 76 38.5 76 C 43.56291198730469 76 48.47384643554688 75.00864410400391 53.09638977050781 73.05347442626953 C 57.56174468994141 71.16478729248047 61.57224273681641 68.46076965332031 65.01651000976562 65.01651000976562 C 68.46076965332031 61.57224273681641 71.16478729248047 57.56174468994141 73.05347442626953 53.09638977050781 C 75.00864410400391 48.47384643554688 76 43.56291198730469 76 38.5 C 76 33.43708801269531 75.00864410400391 28.52615737915039 73.05347442626953 23.90361022949219 C 71.16478729248047 19.43825531005859 68.46076965332031 15.42775726318359 65.01651000976562 11.98348999023438 C 61.57224273681641 8.539230346679688 57.56174468994141 5.835212707519531 53.09638977050781 3.946525573730469 C 48.47384643554688 1.991355895996094 43.56291198730469 1 38.5 1 M 38.5 0 C 59.76296615600586 0 77 17.23703384399414 77 38.5 C 77 59.76296615600586 59.76296615600586 77 38.5 77 C 17.23703384399414 77 0 59.76296615600586 0 38.5 C 0 17.23703384399414 17.23703384399414 0 38.5 0 Z" stroke="none" fill="#fff"/>
    </g>
    <g id="wallet-filled-money-tool_1_" data-name="wallet-filled-money-tool (1)" transform="translate(821.334 216.182)">
      <g id="Group_11087" data-name="Group 11087" transform="translate(0 17.84)">
        <path id="Path_15721" data-name="Path 15721" d="M161.374,24.114l13.686-3.736-.725-1.465a1.929,1.929,0,0,0-2.583-.871L159.5,24.114Z" transform="translate(-153.351 -17.84)" fill="#4691e0" opacity="0.45"/>
        <path id="Path_15722" data-name="Path 15722" d="M335.544,86.46a1.927,1.927,0,0,0-.509.069l-3.215.879L322,90.088h16l-.6-2.205A1.924,1.924,0,0,0,335.544,86.46Z" transform="translate(-309.586 -83.815)" fill="#4691e0" opacity="0.75"/>
        <path id="Path_15723" data-name="Path 15723" d="M30.426,215.56H1.931a1.93,1.93,0,0,0-1.862,1.423,2,2,0,0,0-.069.505v21.478a1.928,1.928,0,0,0,1.928,1.928H30.422a1.928,1.928,0,0,0,1.928-1.928v-5.378H20.911a3.279,3.279,0,0,1-3.277-3.277v-4.287a3.272,3.272,0,0,1,3.273-3.273H32.349v-5.262A1.923,1.923,0,0,0,30.426,215.56Z" transform="translate(0 -207.937)" fill="#4691e0"/>
        <path id="Path_15724" data-name="Path 15724" d="M507.119,437.266a1.926,1.926,0,0,0-.675-.4,1.966,1.966,0,0,0-.625-.1H494.328a1.928,1.928,0,0,0-1.928,1.928v4.291a1.928,1.928,0,0,0,1.928,1.928H505.82a1.965,1.965,0,0,0,.625-.1,1.869,1.869,0,0,0,.675-.4,1.921,1.921,0,0,0,.628-1.423v-4.291A1.921,1.921,0,0,0,507.119,437.266Zm-8.767,3.952a.964.964,0,0,1-.964.964h-.64a.964.964,0,0,1-.964-.964v-.64a.944.944,0,0,1,.37-.756.974.974,0,0,1,.594-.208h.64a.964.964,0,0,1,.964.964v.64Z" transform="translate(-473.417 -420.61)" fill="#20cb36" opacity="0.9"/>
      </g>
    </g>
  </g>
</svg>
