<svg xmlns="http://www.w3.org/2000/svg" width="18.845" height="17.713" viewBox="0 0 18.845 17.713">
  <g id="wallet_2" transform="translate(-1 -1.661)">
    <path id="Path_12712" data-name="Path 12712" d="M18.988,9.532v-2.1a1.762,1.762,0,0,0-1.765-1.765H16.076L6.7,1.763a1.3,1.3,0,0,0-1.713.72L3.707,5.669H2.765A1.762,1.762,0,0,0,1,7.433V17.609a1.762,1.762,0,0,0,1.765,1.765H17.223a1.762,1.762,0,0,0,1.765-1.765v-2.1a.887.887,0,0,0,.857-.882V10.414a.887.887,0,0,0-.857-.882ZM5.78,2.8a.428.428,0,0,1,.24-.248.474.474,0,0,1,.343,0l7.486,3.118H11.776L6.7,3.981a.428.428,0,0,0-.54.248L5.608,5.669H4.632Zm3.289,2.87H6.533l.283-.745Zm9.062,11.941a.909.909,0,0,1-.908.908H2.765a.909.909,0,0,1-.908-.908V7.433a.914.914,0,0,1,.908-.908H17.223a.914.914,0,0,1,.908.908v2.09H14.277a3,3,0,0,0,0,6h3.855Zm.857-2.981a.037.037,0,0,1-.034.034H14.277a2.141,2.141,0,0,1,0-4.283l4.711.034Z" transform="translate(0 0)" fill="#303754"/>
    <path id="Path_12713" data-name="Path 12713" d="M14.42,10.338h3.855V8.248a.914.914,0,0,0-.908-.908H2.908A.914.914,0,0,0,2,8.248V18.424a.909.909,0,0,0,.908.908H17.367a.909.909,0,0,0,.908-.908v-2.09H14.42a3,3,0,1,1,0-6ZM4.141,9.053H5.855a.428.428,0,1,1,0,.857H4.141a.428.428,0,0,1,0-.857Zm3.426,2.57H4.141a.428.428,0,1,1,0-.857H7.568a.428.428,0,1,1,0,.857Z" transform="translate(-0.143 -0.815)" fill="#fff"/>
    <path id="Path_12714" data-name="Path 12714" d="M10,6.215H7.46l.283-.745Z" transform="translate(-0.927 -0.546)" fill="#fff"/>
    <path id="Path_12715" data-name="Path 12715" d="M16.141,11.84a2.141,2.141,0,0,0,0,4.283h4.677a.037.037,0,0,0,.034-.034V11.874Zm0,3.426a1.285,1.285,0,1,1,1.285-1.285A1.285,1.285,0,0,1,16.141,15.266Z" transform="translate(-1.865 -1.46)" fill="#61c96c"/>
    <path id="Path_12716" data-name="Path 12716" d="M14.457,5.813H12.384L7.313,4.125a.428.428,0,0,0-.54.248L6.216,5.813H5.24l1.148-2.87a.428.428,0,0,1,.24-.248.474.474,0,0,1,.343,0Z" transform="translate(-0.608 -0.144)" fill="#61c96c"/>
    <path id="Path_12717" data-name="Path 12717" d="M16.285,12.84a1.285,1.285,0,1,0,1.285,1.285A1.285,1.285,0,0,0,16.285,12.84Zm0,1.713a.428.428,0,1,1,.428-.428A.428.428,0,0,1,16.285,14.553Z" transform="translate(-2.008 -1.603)" fill="#303754"/>
    <circle id="Ellipse_375" data-name="Ellipse 375" cx="0.428" cy="0.428" r="0.428" transform="translate(13.849 12.093)" fill="#61c96c"/>
    <g id="Group_10954" data-name="Group 10954" transform="translate(3.57 8.239)">
      <path id="Path_12718" data-name="Path 12718" d="M6.57,9.768a.428.428,0,0,1-.428.428H4.428a.428.428,0,0,1,0-.857H6.141A.428.428,0,0,1,6.57,9.768Z" transform="translate(-4 -9.34)" fill="#303754"/>
      <path id="Path_12719" data-name="Path 12719" d="M8.283,11.768a.428.428,0,0,1-.428.428H4.428a.428.428,0,0,1,0-.857H7.855A.428.428,0,0,1,8.283,11.768Z" transform="translate(-4 -9.627)" fill="#303754"/>
    </g>
  </g>
</svg>
