<svg xmlns="http://www.w3.org/2000/svg" width="11.391" height="11.39" viewBox="0 0 11.391 11.39">
  <g id="Bid_Won_:" data-name="Bid Won :" transform="translate(0 0)">
    <g id="Group_11072" data-name="Group 11072" transform="translate(0 9.492)">
      <g id="Group_11071" data-name="Group 11071">
        <path id="Path_15747" data-name="Path 15747" d="M5.932,21.9H.712A.713.713,0,0,1,0,21.186v-.475A.713.713,0,0,1,.712,20h5.22a.713.713,0,0,1,.712.712v.475A.713.713,0,0,1,5.932,21.9ZM.712,20.475a.238.238,0,0,0-.237.237v.475a.238.238,0,0,0,.237.237h5.22a.238.238,0,0,0,.237-.237v-.475a.238.238,0,0,0-.237-.237Z" transform="translate(0 -20)" fill="#989898"/>
      </g>
    </g>
    <g id="Group_11083" data-name="Group 11083" transform="translate(1.898 0.001)">
      <g id="Group_11079" data-name="Group 11079">
        <g id="Group_11074" data-name="Group 11074" transform="translate(1.087 1.087)">
          <g id="Group_11073" data-name="Group 11073">
            <path id="Path_15748" data-name="Path 15748" d="M8.38,7.2a.412.412,0,0,1-.3-.12L6.411,5.412c-.291-.291.029-.8.134-.961a6.516,6.516,0,0,1,.864-1.039,6.511,6.511,0,0,1,1.04-.866c.166-.106.671-.426.962-.135l1.666,1.666c.292.292-.029.8-.135.962a6.522,6.522,0,0,1-.867,1.041,6.5,6.5,0,0,1-1.039.864A1.373,1.373,0,0,1,8.38,7.2Zm.7-4.451a3.992,3.992,0,0,0-1.33,1c-.726.726-1,1.247-.98,1.365L8.413,6.742a3.988,3.988,0,0,0,1.331-1,3.423,3.423,0,0,0,.98-1.35Z" transform="translate(-6.291 -2.291)" fill="#989898"/>
          </g>
        </g>
        <g id="Group_11076" data-name="Group 11076" transform="translate(0 3.665)">
          <g id="Group_11075" data-name="Group 11075">
            <path id="Path_15749" data-name="Path 15749" d="M6.374,11.138a.707.707,0,0,1-.5-.207L4.207,9.265a.708.708,0,0,1,0-1l.333-.333a.709.709,0,0,1,1,0L7.209,9.6a.709.709,0,0,1,0,1l-.333.333A.708.708,0,0,1,6.374,11.138ZM5.042,8.2a.235.235,0,0,0-.166.069L4.543,8.6a.234.234,0,0,0,0,.331L6.209,10.6a.235.235,0,0,0,.331,0l.333-.333a.234.234,0,0,0,0-.331L5.207,8.266A.235.235,0,0,0,5.042,8.2Z" transform="translate(-4 -7.722)" fill="#989898"/>
          </g>
        </g>
        <g id="Group_11078" data-name="Group 11078" transform="translate(3.665)">
          <g id="Group_11077" data-name="Group 11077">
            <path id="Path_15750" data-name="Path 15750" d="M14.1,3.415a.707.707,0,0,1-.5-.207L11.93,1.542a.709.709,0,0,1,0-1l.333-.333a.709.709,0,0,1,1,0L14.93,1.873a.709.709,0,0,1,0,1l-.333.333a.706.706,0,0,1-.5.207ZM12.764.475A.235.235,0,0,0,12.6.544l-.333.333a.234.234,0,0,0,0,.33l1.666,1.666a.235.235,0,0,0,.331,0l.333-.333a.234.234,0,0,0,0-.331L12.929.544a.233.233,0,0,0-.165-.068Zm2,2.232h0Z" transform="translate(-11.722 -0.001)" fill="#989898"/>
          </g>
        </g>
      </g>
      <g id="Group_11082" data-name="Group 11082" transform="translate(4.163 4.162)">
        <g id="Group_11081" data-name="Group 11081">
          <g id="Group_11080" data-name="Group 11080">
            <path id="Path_15751" data-name="Path 15751" d="M17.2,14.1a1.376,1.376,0,0,1-.922-.491c-.327-.327-2.253-2.446-3.448-3.855a.237.237,0,0,1,.362-.307c1.246,1.469,3.138,3.544,3.421,3.827.534.535.743.327.867.2a.417.417,0,0,0,.146-.246c.016-.162-.1-.376-.349-.621-.28-.281-2.352-2.17-3.827-3.422a.237.237,0,1,1,.307-.362c1.415,1.2,3.531,3.123,3.856,3.448a1.3,1.3,0,0,1,.486,1,1.011,1.011,0,0,1-.9.822Z" transform="translate(-12.771 -8.77)" fill="#989898"/>
          </g>
        </g>
      </g>
    </g>
  </g>
</svg>
