<svg xmlns="http://www.w3.org/2000/svg" width="9" height="9" viewBox="0 0 9 9">
  <path id="Auction_Start_Date_And_Time_:" data-name="Auction Start Date And Time :" d="M4.746,6.873A2.127,2.127,0,1,1,6.873,9,2.129,2.129,0,0,1,4.746,6.873Zm.7,0A1.424,1.424,0,1,0,6.873,5.449,1.425,1.425,0,0,0,5.449,6.873ZM1.406,9A1.408,1.408,0,0,1,0,7.594V2.109A1.408,1.408,0,0,1,1.406.7h.439V.352a.352.352,0,1,1,.7,0V.7H4.131V.352a.352.352,0,0,1,.7,0V.7h1.6V.352a.352.352,0,1,1,.7,0V.7h.457A1.408,1.408,0,0,1,9,2.109v2a.352.352,0,0,1-.7,0v-2a.7.7,0,0,0-.7-.7H7.137v.352a.352.352,0,1,1-.7,0V1.406h-1.6v.352a.352.352,0,0,1-.7,0V1.406H2.549v.352a.352.352,0,1,1-.7,0V1.406H1.406a.7.7,0,0,0-.7.7V7.594a.7.7,0,0,0,.7.7H4.1a.352.352,0,0,1,0,.7ZM6.873,7.225a.352.352,0,0,1-.352-.352V6.152a.352.352,0,0,1,.7,0v.369h.158a.352.352,0,0,1,0,.7Zm-3.5-.475a.352.352,0,1,1,.352.352A.352.352,0,0,1,3.375,6.75Zm-1.529,0A.352.352,0,1,1,2.2,7.1.352.352,0,0,1,1.846,6.75ZM3.375,5.221a.352.352,0,1,1,.352.352A.352.352,0,0,1,3.375,5.221Zm-1.529,0a.352.352,0,1,1,.352.352A.352.352,0,0,1,1.846,5.221ZM6.434,3.691a.352.352,0,1,1,.352.352A.352.352,0,0,1,6.434,3.691Zm-1.529,0a.352.352,0,1,1,.352.352A.352.352,0,0,1,4.9,3.691Zm-1.529,0a.352.352,0,1,1,.352.352A.352.352,0,0,1,3.375,3.691Zm-1.529,0a.352.352,0,1,1,.352.352A.352.352,0,0,1,1.846,3.691Z" fill="#989898"/>
</svg>
