<svg xmlns="http://www.w3.org/2000/svg" width="14" height="14" viewBox="0 0 14 14">
  <path id="Date_And_Time_" data-name="Date And Time " d="M7.383,10.691A3.309,3.309,0,1,1,10.691,14,3.312,3.312,0,0,1,7.383,10.691Zm1.094,0a2.215,2.215,0,1,0,2.215-2.215A2.217,2.217,0,0,0,8.477,10.691ZM2.188,14A2.19,2.19,0,0,1,0,11.812V3.281A2.19,2.19,0,0,1,2.188,1.094h.684V.547a.547.547,0,1,1,1.094,0v.547H6.426V.547a.547.547,0,0,1,1.094,0v.547h2.488V.547a.547.547,0,1,1,1.094,0v.547h.711A2.19,2.19,0,0,1,14,3.281V6.4a.547.547,0,0,1-1.094,0V3.281a1.1,1.1,0,0,0-1.094-1.094H11.1v.547a.547.547,0,1,1-1.094,0V2.188H7.52v.547a.547.547,0,0,1-1.094,0V2.188H3.965v.547a.547.547,0,1,1-1.094,0V2.188H2.188A1.1,1.1,0,0,0,1.094,3.281v8.531a1.1,1.1,0,0,0,1.094,1.094H6.371a.547.547,0,0,1,0,1.094Zm8.5-2.762a.547.547,0,0,1-.547-.547V9.57a.547.547,0,0,1,1.094,0v.574h.246a.547.547,0,0,1,0,1.094ZM5.25,10.5a.547.547,0,1,1,.547.547A.547.547,0,0,1,5.25,10.5Zm-2.379,0a.547.547,0,1,1,.547.547A.547.547,0,0,1,2.871,10.5ZM5.25,8.121a.547.547,0,1,1,.547.547A.547.547,0,0,1,5.25,8.121Zm-2.379,0a.547.547,0,1,1,.547.547A.547.547,0,0,1,2.871,8.121Zm7.137-2.379a.547.547,0,1,1,.547.547A.547.547,0,0,1,10.008,5.742Zm-2.379,0a.547.547,0,1,1,.547.547A.547.547,0,0,1,7.629,5.742Zm-2.379,0a.547.547,0,1,1,.547.547A.547.547,0,0,1,5.25,5.742Zm-2.379,0a.547.547,0,1,1,.547.547A.547.547,0,0,1,2.871,5.742Z" fill="#3d96ee"/>
</svg>
