<svg xmlns="http://www.w3.org/2000/svg" width="10.13" height="10.099" viewBox="0 0 10.13 10.099">
  <g id="District_:" data-name="District :" transform="translate(0 -0.769)">
    <path id="Path_15734" data-name="Path 15734" d="M10.13,4.612V1.93H6.894a2.13,2.13,0,0,0-.133-.6h-.5c-.482,0-.817.045-.943-.157L5.065.769l-.253.408c-.127.2-.475.157-.943.157h-.5a2.12,2.12,0,0,0-.133.6H0V4.612H.6v5.661H0v.6H10.13v-.6h-.6V4.612h.6Zm-.6-.6H6.012a2.627,2.627,0,0,0,.853-1.49H9.534ZM3.832,1.93a2.21,2.21,0,0,0,1.233-.174,2.148,2.148,0,0,0,1.2.174H6.3A2.088,2.088,0,0,1,5.065,3.972,2.088,2.088,0,0,1,3.832,1.93ZM.6,2.526H3.265a2.627,2.627,0,0,0,.853,1.49H.6Zm3.575,7.746V8.187H5.959v2.086Zm4.767,0H6.555V7.591H3.575v2.681H1.192V4.612H8.938Z" fill="#989898"/>
    <path id="Path_15735" data-name="Path 15735" d="M105,344.231h.6v.6H105Z" transform="translate(-102.914 -336.64)" fill="#989898"/>
    <path id="Path_15736" data-name="Path 15736" d="M105,404.231h.6v.6H105Z" transform="translate(-102.914 -395.448)" fill="#989898"/>
    <path id="Path_15737" data-name="Path 15737" d="M375,344.231h.6v.6H375Z" transform="translate(-367.552 -336.64)" fill="#989898"/>
    <path id="Path_15738" data-name="Path 15738" d="M375,404.231h.6v.6H375Z" transform="translate(-367.552 -395.448)" fill="#989898"/>
    <path id="Path_15739" data-name="Path 15739" d="M90,226.019h1.788v-1.788H90Zm.6-1.192h.6v.6h-.6Z" transform="translate(-88.212 -219.023)" fill="#989898"/>
    <path id="Path_15740" data-name="Path 15740" d="M331.788,224.231H330v1.788h1.788Zm-.6,1.192h-.6v-.6h.6Z" transform="translate(-323.445 -219.024)" fill="#989898"/>
    <path id="Path_15741" data-name="Path 15741" d="M210,224.231h.6v.6H210Z" transform="translate(-205.829 -219.024)" fill="#989898"/>
    <path id="Path_15742" data-name="Path 15742" d="M270,224.231h.6v.6H270Z" transform="translate(-264.637 -219.024)" fill="#989898"/>
    <path id="Path_15743" data-name="Path 15743" d="M210,284.231h.6v.6H210Z" transform="translate(-205.829 -277.832)" fill="#989898"/>
    <path id="Path_15744" data-name="Path 15744" d="M270,284.231h.6v.6H270Z" transform="translate(-264.637 -277.832)" fill="#989898"/>
    <path id="Path_15745" data-name="Path 15745" d="M240,89.231h.6v.6H240Z" transform="translate(-235.233 -86.705)" fill="#989898"/>
  </g>
</svg>
