<svg id="Event_Id_:" data-name="Event Id :" xmlns="http://www.w3.org/2000/svg" width="13.649" height="13.43" viewBox="0 0 13.649 13.43">
  <g id="Group_11036" data-name="Group 11036" transform="translate(4.47 0.109)">
    <path id="Path_15709" data-name="Path 15709" d="M168.738,8.247l.22.619a.1.1,0,0,0,.052.058l.55.248a.11.11,0,0,1,0,.194l-.55.248a.1.1,0,0,0-.052.058l-.22.619a.089.089,0,0,1-.172,0l-.22-.619a.1.1,0,0,0-.052-.058l-.55-.248a.11.11,0,0,1,0-.194l.55-.248a.1.1,0,0,0,.052-.058l.22-.619a.089.089,0,0,1,.172,0Z" transform="translate(-167.687 -8.181)" fill="#989898"/>
    <path id="Path_15710" data-name="Path 15710" d="M458.181,217.448l.163.459a.073.073,0,0,0,.038.043l.408.184a.081.081,0,0,1,0,.144l-.408.184a.073.073,0,0,0-.038.043l-.163.459a.066.066,0,0,1-.128,0l-.163-.459a.073.073,0,0,0-.038-.043l-.408-.184a.081.081,0,0,1,0-.144l.408-.184a.073.073,0,0,0,.038-.043l.163-.459A.066.066,0,0,1,458.181,217.448Z" transform="translate(-449.678 -211.822)" fill="#989898"/>
    <circle id="Ellipse_450" data-name="Ellipse 450" cx="0.207" cy="0.207" r="0.207" transform="translate(5.262 1.757)" fill="#989898"/>
    <circle id="Ellipse_451" data-name="Ellipse 451" cx="0.382" cy="0.382" r="0.382" transform="translate(7.821 0.989) rotate(-85.931)" fill="#989898"/>
  </g>
  <g id="Group_11037" data-name="Group 11037" transform="translate(0 0)">
    <path id="Path_15711" data-name="Path 15711" d="M9.2,63.676a8.292,8.292,0,0,0-1.621-2.189c-.221-.221-.448-.429-.677-.62l-.173-.621.436.142.007,0a1.159,1.159,0,0,0,1.15-.288l.45-.45a1.159,1.159,0,0,0,.288-1.15l-.248-.838a.818.818,0,0,0-1.57.462l.175.624-.441-.124a1.159,1.159,0,0,0-1.149.288l-.45.45a1.144,1.144,0,0,0-.255.387c-.788-.308-1.211-.164-1.433.039a.852.852,0,0,0-.336.372l0,.006L.09,67.682A1,1,0,0,0,1.412,69l7.53-3.242.007,0a.853.853,0,0,0,.481-.625c0-.012,0-.024.005-.036A1.925,1.925,0,0,0,9.2,63.676Zm-.785-.312a.286.286,0,1,1-.2.084A.286.286,0,0,1,8.411,63.364Zm-.467-5.74a.283.283,0,0,1,.351.191l.248.838a.624.624,0,0,1-.153.62l-.2.2-.128-.412h0l-.3-1.085v0A.283.283,0,0,1,7.945,57.624ZM6.823,59.139h0l.762.215.155.5a.633.633,0,0,1-.419.022l-.777-.253L6.4,59.159a.627.627,0,0,1,.237-.046A.643.643,0,0,1,6.823,59.139Zm-1.07.6.207-.207.131.426v0l.3,1.072v0a.283.283,0,1,1-.543.16L5.6,60.362A.624.624,0,0,1,5.753,59.742Zm-1.715.451a.39.39,0,0,1,.28-.085,1.912,1.912,0,0,1,.726.19,1.182,1.182,0,0,0,.042.214l.248.838a.818.818,0,0,0,1.5.168q.183.166.363.345A9.171,9.171,0,0,1,8.22,63.074a.607.607,0,1,0,.583,1.04c.2.508.173.8.065.909s-.48.145-1.118-.156a7.751,7.751,0,0,1-2.04-1.516A7.75,7.75,0,0,1,4.2,61.311c-.3-.638-.278-1-.156-1.118ZM1.2,68.514l-.007,0a.463.463,0,0,1-.52-.092h0a.463.463,0,0,1-.092-.52l0-.006,2.951-6.8a3.845,3.845,0,0,0,.18.447A8.292,8.292,0,0,0,5.332,63.73a8.291,8.291,0,0,0,2.189,1.621,3.65,3.65,0,0,0,.538.209Z" transform="translate(0.001 -55.665)" fill="#989898"/>
    <path id="Path_15712" data-name="Path 15712" d="M333.928,82.266l-.838-.248a1.159,1.159,0,0,0-1.15.288l-.45.45a1.159,1.159,0,0,0-.288,1.15l0,.007.142.436-.644-.179a.818.818,0,0,0-.462,1.57l.838.248a1.178,1.178,0,0,0,.334.049,1.152,1.152,0,0,0,.816-.336l.45-.45a1.159,1.159,0,0,0,.288-1.149l-.124-.441.624.175a.818.818,0,0,0,.462-1.57Zm-1.691,1.222.215.762v0a.634.634,0,0,1-.02.419l-.465-.143-.253-.777a.633.633,0,0,1,.022-.419Zm-1.007,1.987-.838-.248a.278.278,0,0,1-.12-.071.283.283,0,0,1,.28-.472h0l1.072.3h0l.426.131-.207.207A.624.624,0,0,1,331.23,85.475Zm2.737-2.344a.283.283,0,0,1-.351.191h0l-1.085-.3h0l-.412-.128.2-.2a.624.624,0,0,1,.62-.153l.838.248A.283.283,0,0,1,333.967,83.131Z" transform="translate(-320.866 -79.895)" fill="#989898"/>
    <path id="Path_15713" data-name="Path 15713" d="M359.811,5.325a.608.608,0,1,0-.43-.178A.606.606,0,0,0,359.811,5.325Zm-.2-.81a.286.286,0,1,1,0,.405A.286.286,0,0,1,359.608,4.515Z" transform="translate(-349.628 -4.11)" fill="#989898"/>
    <path id="Path_15714" data-name="Path 15714" d="M396.55,278.007a.608.608,0,1,0,.86,0A.608.608,0,0,0,396.55,278.007Zm.632.632a.286.286,0,1,1,0-.405A.287.287,0,0,1,397.182,278.639Z" transform="translate(-385.806 -270.533)" fill="#989898"/>
    <path id="Path_15715" data-name="Path 15715" d="M91.562,316.372a.268.268,0,0,1-.246-.374l.339-.788a.268.268,0,1,1,.492.212l-.339.788A.268.268,0,0,1,91.562,316.372Z" transform="translate(-88.86 -306.76)" fill="#989898"/>
    <path id="Path_15716" data-name="Path 15716" d="M118.52,273.756a.268.268,0,0,1-.246-.374l.1-.24a.268.268,0,1,1,.492.212l-.1.24A.268.268,0,0,1,118.52,273.756Z" transform="translate(-115.1 -265.812)" fill="#989898"/>
  </g>
</svg>
