<svg id="Event_Level_:" data-name="Event Level :" xmlns="http://www.w3.org/2000/svg" width="10.13" height="10.13" viewBox="0 0 10.13 10.13">
  <g id="Group_11035" data-name="Group 11035" transform="translate(0 0)">
    <path id="Path_15705" data-name="Path 15705" d="M.6,168.273v-6.555a.3.3,0,0,1,.3-.3H5.065a.3.3,0,0,1,0,.6H1.192v6.257h8.64a.3.3,0,1,1,0,.6H.3a.3.3,0,0,1,0-.6H.6Z" transform="translate(0 -158.739)" fill="#989898" fill-rule="evenodd"/>
    <path id="Path_15706" data-name="Path 15706" d="M308.777.6V9.534a.3.3,0,0,0,.6,0V.3a.3.3,0,0,0-.3-.3H305.2a.3.3,0,0,0-.3.3V9.534a.3.3,0,0,0,.6,0V.6Z" transform="translate(-299.839 0)" fill="#989898" fill-rule="evenodd"/>
    <path id="Path_15707" data-name="Path 15707" d="M93.849,72.337h3.277a.3.3,0,0,0,0-.6H93.849a.3.3,0,1,0,0,.6Zm-3.575.3h2.086v.6a.3.3,0,1,0,.6,0v-.894a.3.3,0,0,0-.3-.3H89.976a.3.3,0,0,0-.3.3v.894a.3.3,0,1,0,.6,0Z" transform="translate(-88.188 -70.549)" fill="#989898" fill-rule="evenodd"/>
    <path id="Path_15708" data-name="Path 15708" d="M99.837.3V1.49a.3.3,0,1,0,.6,0V.3a.3.3,0,1,0-.6,0Zm4.916,8.044v.447a.3.3,0,1,0,.6,0V8.342a.3.3,0,1,0-.6,0Zm-1.49,0v.447a.3.3,0,0,0,.6,0V8.342a.3.3,0,0,0-.6,0Zm1.49-1.937v.447a.3.3,0,1,0,.6,0V6.406a.3.3,0,1,0-.6,0Zm-1.49,0v.447a.3.3,0,0,0,.6,0V6.406a.3.3,0,0,0-.6,0Zm1.49-1.937v.447a.3.3,0,1,0,.6,0V4.469a.3.3,0,1,0-.6,0Zm-1.49,0v.447a.3.3,0,0,0,.6,0V4.469a.3.3,0,0,0-.6,0Zm1.49-1.937v.447a.3.3,0,1,0,.6,0V2.532a.3.3,0,1,0-.6,0Zm-1.49,0v.447a.3.3,0,0,0,.6,0V2.532a.3.3,0,0,0-.6,0Zm-4.022,5.81h1.788V9.534a.3.3,0,0,0,.6,0V8.044a.3.3,0,0,0-.3-.3H98.943a.3.3,0,0,0-.3.3v1.49a.3.3,0,0,0,.6,0Zm0-1.937h1.788v.3H99.241Zm-.6.6a.3.3,0,0,0,.3.3h2.383a.3.3,0,0,0,.3-.3V6.108a.3.3,0,0,0-.3-.3H98.943a.3.3,0,0,0-.3.3V7Zm.6-2.532h1.788v.3H99.241Zm-.6.6a.3.3,0,0,0,.3.3h2.383a.3.3,0,0,0,.3-.3V4.171a.3.3,0,0,0-.3-.3H98.943a.3.3,0,0,0-.3.3v.894Z" transform="translate(-97.006 0)" fill="#989898" fill-rule="evenodd"/>
  </g>
</svg>
