<svg id="Tender_Purchased_:" data-name="Tender Purchased :" xmlns="http://www.w3.org/2000/svg" width="12.214" height="11.779" viewBox="0 0 12.214 11.779">
  <g id="Group_11049" data-name="Group 11049" transform="translate(0 0)">
    <path id="Path_15729" data-name="Path 15729" d="M104.831,107.975h.589v.711a.239.239,0,0,0,.477,0v-.711h.589a.239.239,0,0,0,.239-.239V106.4a.239.239,0,0,0-.477,0v1.1h-1.178V103.17h1.178v1.125a.239.239,0,1,0,.477,0v-1.363a.239.239,0,0,0-.239-.239H105.9v-.727a.239.239,0,0,0-.477,0v.727h-.589a.239.239,0,0,0-.239.239v4.806A.239.239,0,0,0,104.831,107.975Z" transform="translate(-102.097 -99.518)" fill="#989898"/>
    <path id="Path_15730" data-name="Path 15730" d="M360.408,146.427H361v.711a.239.239,0,1,0,.477,0v-.711h.589a.239.239,0,0,0,.239-.239v-3.13a.239.239,0,0,0-.239-.239h-.589v-.727a.239.239,0,0,0-.477,0v.727h-.589a.239.239,0,0,0-.239.239v3.13A.239.239,0,0,0,360.408,146.427Zm.239-3.13h1.178v2.653h-1.178Z" transform="translate(-351.576 -138.687)" fill="#989898"/>
    <path id="Path_15731" data-name="Path 15731" d="M233.417,45.757h.589v.711a.239.239,0,1,0,.477,0v-.711h.589a.239.239,0,0,0,.239-.239v-3.7a.239.239,0,0,0-.239-.239h-.589v-.727a.239.239,0,1,0-.477,0v.727h-.589a.239.239,0,0,0-.239.239v3.7A.239.239,0,0,0,233.417,45.757Zm.239-3.7h1.178v3.221h-1.178Z" transform="translate(-227.615 -39.865)" fill="#989898"/>
    <path id="Path_15732" data-name="Path 15732" d="M174.419,242.072a.239.239,0,1,0-.037.308A.241.241,0,0,0,174.419,242.072Z" transform="translate(-169.831 -236.411)" fill="#989898"/>
    <path id="Path_15733" data-name="Path 15733" d="M12.166,19.761a.241.241,0,0,0-.007-.3l-.526-.623a.239.239,0,0,0-.365.308l.195.23H1.435V9.872l.23.195A.239.239,0,0,0,1.973,9.7L1.35,9.176a.241.241,0,0,0-.308,0L.419,9.7a.239.239,0,0,0,.308.365l.23-.195v9.506H.239a.239.239,0,1,0,0,.477H.958v.806a.239.239,0,0,0,.477,0v-.806H11.463l-.195.23a.239.239,0,0,0,.365.308l.526-.623Z" transform="translate(0 -9.12)" fill="#989898"/>
  </g>
</svg>
