<svg xmlns="http://www.w3.org/2000/svg" width="53.046" height="68" viewBox="0 0 53.046 68">
  <g id="Tender_puchased" data-name="Tender puchased" transform="translate(-3.1 -0.5)" opacity="0.3">
    <path id="Path_15772" data-name="Path 15772" d="M56.146,9.247A8.791,8.791,0,0,0,47.4.5H25.108a7.685,7.685,0,0,0-5.925,2.539L5.922,15.454A8.7,8.7,0,0,0,3.1,21.944V59.753A8.791,8.791,0,0,0,11.847,68.5H47.4a8.791,8.791,0,0,0,8.747-8.747ZM8.743,21.662A3.483,3.483,0,0,1,9.872,19.4L22.851,6.99a3.405,3.405,0,0,1,2.257-.846h.282V16.865a5.357,5.357,0,0,1-5.361,5.361ZM46.834,44.8,36.112,56.932a3.048,3.048,0,0,1-1.975.846h-.282A3.483,3.483,0,0,1,31.6,56.649L25.673,47.62l-9.029,9.593a2.793,2.793,0,0,1-3.95-3.95L24.262,41.131a3.2,3.2,0,0,1,2.257-.846,3.483,3.483,0,0,1,2.257,1.129L34.7,50.442l8.183-9.311a3.022,3.022,0,0,1,3.95-.282,2.723,2.723,0,0,1,0,3.95Zm-.846-17.212H33.855a2.666,2.666,0,0,1-2.822-2.822,2.666,2.666,0,0,1,2.822-2.822H45.988a2.827,2.827,0,0,1,2.822,2.822A2.666,2.666,0,0,1,45.988,27.587Zm0-11.286H33.855a2.666,2.666,0,0,1-2.822-2.822,2.666,2.666,0,0,1,2.822-2.822H45.988a2.827,2.827,0,0,1,2.822,2.822A2.666,2.666,0,0,1,45.988,16.3Z" transform="translate(0 0)" fill="#fff"/>
  </g>
</svg>
