<svg id="title" xmlns="http://www.w3.org/2000/svg" width="10.13" height="9.286" viewBox="0 0 10.13 9.286">
  <g id="Group_11027" data-name="Group 11027" transform="translate(1.266 3.377)">
    <path id="Path_15697" data-name="Path 15697" d="M6.9,10.266a.317.317,0,0,1-.317-.317V9.633H3.633V9.95A.317.317,0,1,1,3,9.95V9.317A.317.317,0,0,1,3.317,9H6.9a.317.317,0,0,1,.317.317V9.95A.317.317,0,0,1,6.9,10.266Z" transform="translate(-3 -9)" fill="#989898"/>
  </g>
  <g id="Group_11028" data-name="Group 11028" transform="translate(3.06 3.482)">
    <path id="Path_15698" data-name="Path 15698" d="M7.567,13.26a.317.317,0,0,1-.317-.317V9.567a.317.317,0,0,1,.633,0v3.377A.317.317,0,0,1,7.567,13.26Z" transform="translate(-7.25 -9.25)" fill="#989898"/>
  </g>
  <g id="Group_11029" data-name="Group 11029" transform="translate(2.532 6.964)">
    <path id="Path_15699" data-name="Path 15699" d="M7.372,18.133H6.317a.317.317,0,1,1,0-.633H7.372a.317.317,0,0,1,0,.633Z" transform="translate(-6 -17.5)" fill="#989898"/>
  </g>
  <g id="Group_11030" data-name="Group 11030" transform="translate(6.331 3.377)">
    <path id="Path_15700" data-name="Path 15700" d="M17.216,9.633h-1.9a.317.317,0,0,1,0-.633h1.9a.317.317,0,0,1,0,.633Z" transform="translate(-15 -9)" fill="#989898"/>
  </g>
  <g id="Group_11031" data-name="Group 11031" transform="translate(6.331 5.065)">
    <path id="Path_15701" data-name="Path 15701" d="M17.216,13.633h-1.9a.317.317,0,0,1,0-.633h1.9a.317.317,0,0,1,0,.633Z" transform="translate(-15 -13)" fill="#989898"/>
  </g>
  <g id="Group_11032" data-name="Group 11032" transform="translate(6.331 6.753)">
    <path id="Path_15702" data-name="Path 15702" d="M17.216,17.633h-1.9a.317.317,0,1,1,0-.633h1.9a.317.317,0,1,1,0,.633Z" transform="translate(-15 -17)" fill="#989898"/>
  </g>
  <g id="Group_11033" data-name="Group 11033" transform="translate(0 0)">
    <path id="Path_15703" data-name="Path 15703" d="M8.969,10.286H1.161A1.162,1.162,0,0,1,0,9.125V2.161A1.162,1.162,0,0,1,1.161,1H8.969A1.162,1.162,0,0,1,10.13,2.161V9.125A1.162,1.162,0,0,1,8.969,10.286ZM1.161,1.633a.528.528,0,0,0-.528.528V9.125a.528.528,0,0,0,.528.528H8.969A.528.528,0,0,0,9.5,9.125V2.161a.528.528,0,0,0-.528-.528Z" transform="translate(0 -1)" fill="#989898"/>
  </g>
  <g id="Group_11034" data-name="Group 11034" transform="translate(0 1.477)">
    <path id="Path_15704" data-name="Path 15704" d="M9.813,5.133H.317a.317.317,0,1,1,0-.633h9.5a.317.317,0,0,1,0,.633Z" transform="translate(0 -4.5)" fill="#989898"/>
  </g>
</svg>
