<svg xmlns="http://www.w3.org/2000/svg" width="61.464" height="62.441" viewBox="0 0 61.464 62.441">
  <g id="Total_Participoted_Events" data-name="Total Participoted Events" transform="translate(-0.977)" opacity="0.25">
    <g id="Group_11087" data-name="Group 11087" transform="translate(0.977)">
      <path id="Path_15761" data-name="Path 15761" d="M43.344,65.628l-.958,5.69A2.075,2.075,0,0,0,45.393,73.5l5.116-2.67L55.625,73.5a2.076,2.076,0,0,0,3.009-2.186l-.957-5.69L61.8,61.588a2.076,2.076,0,0,0-1.149-3.537L54.938,57.2l-2.571-5.167a2.077,2.077,0,0,0-3.719,0L46.08,57.2l-5.708.846a2.076,2.076,0,0,0-1.149,3.537Z" transform="translate(-19.778 -25.429)" fill="#fff"/>
      <path id="Path_15762" data-name="Path 15762" d="M56.24,6.638H49.7V3.013A3.013,3.013,0,0,0,46.691,0h-.478A3.012,3.012,0,0,0,43.2,3.013V6.638H20.14V3.013A3.012,3.012,0,0,0,17.128,0H16.65a3.012,3.012,0,0,0-3.012,3.013V6.638H7.177a6.207,6.207,0,0,0-6.2,6.2v43.4a6.209,6.209,0,0,0,6.2,6.2H56.241a6.209,6.209,0,0,0,6.2-6.2v-43.4A6.209,6.209,0,0,0,56.24,6.638Zm-.809,48.794H7.986V21.646H55.431Z" transform="translate(-0.977)" fill="#fff"/>
    </g>
  </g>
</svg>
