<svg xmlns="http://www.w3.org/2000/svg" width="65" height="62.396" viewBox="0 0 65 62.396">
  <g id="Total_Payment_completed" data-name="Total Payment completed" transform="translate(0 -17.84)" opacity="0.3">
    <g id="Group_11088" data-name="Group 11088" transform="translate(0 17.84)">
      <path id="Path_15763" data-name="Path 15763" d="M163.047,29.718l25.912-7.073-1.372-2.774a3.651,3.651,0,0,0-4.891-1.65l-23.2,11.5Z" transform="translate(-147.858 -17.84)" fill="#fff"/>
      <path id="Path_15764" data-name="Path 15764" d="M347.642,86.46a3.648,3.648,0,0,0-.964.131l-6.088,1.664L322,93.329h30.3l-1.139-4.175A3.643,3.643,0,0,0,347.642,86.46Z" transform="translate(-298.496 -81.451)" fill="#fff"/>
      <path id="Path_15765" data-name="Path 15765" d="M57.606,215.56H3.657a3.654,3.654,0,0,0-3.526,2.693A3.778,3.778,0,0,0,0,219.21v40.664a3.651,3.651,0,0,0,3.65,3.65H57.6a3.651,3.651,0,0,0,3.65-3.65V249.691H39.591a6.209,6.209,0,0,1-6.2-6.2V235.37a6.2,6.2,0,0,1,6.2-6.2H61.248V219.21A3.64,3.64,0,0,0,57.606,215.56Z" transform="translate(0 -201.128)" fill="#fff"/>
      <path id="Path_15766" data-name="Path 15766" d="M520.269,437.717a3.646,3.646,0,0,0-1.277-.759,3.721,3.721,0,0,0-1.182-.2H496.05a3.651,3.651,0,0,0-3.65,3.65v8.124a3.651,3.651,0,0,0,3.65,3.65h21.759a3.719,3.719,0,0,0,1.182-.2,3.539,3.539,0,0,0,1.277-.759,3.637,3.637,0,0,0,1.19-2.693v-8.124A3.637,3.637,0,0,0,520.269,437.717Zm-16.6,7.482a1.825,1.825,0,0,1-1.825,1.825h-1.212a1.825,1.825,0,0,1-1.825-1.825v-1.212a1.788,1.788,0,0,1,.7-1.431,1.844,1.844,0,0,1,1.124-.394h1.212a1.825,1.825,0,0,1,1.825,1.825V445.2Z" transform="translate(-456.458 -406.183)" fill="#fff"/>
    </g>
  </g>
</svg>
