<svg xmlns="http://www.w3.org/2000/svg" width="64.327" height="64.305" viewBox="0 0 64.327 64.305">
  <g id="Total_Polt_Auctions_Bids_won" data-name="Total Polt Auctions Bids won" transform="translate(0 -0.09)" opacity="0.3">
    <g id="Group_11090" data-name="Group 11090" transform="translate(0 53.087)">
      <g id="Group_11089" data-name="Group 11089" transform="translate(0)">
        <path id="Path_15767" data-name="Path 15767" d="M39.577,429.448H37.5a9.438,9.438,0,0,0-9.232-7.538H13.193a9.438,9.438,0,0,0-9.232,7.538H1.886a1.885,1.885,0,1,0,0,3.769H39.577a1.885,1.885,0,1,0,0-3.769Z" transform="translate(-0.001 -421.91)" fill="#fff"/>
      </g>
    </g>
    <g id="Group_11092" data-name="Group 11092" transform="translate(26.653 0.09)">
      <g id="Group_11091" data-name="Group 11091" transform="translate(0 0)">
        <path id="Path_15768" data-name="Path 15768" d="M234.559,17.185,218.568,1.194a3.769,3.769,0,1,0-5.33,5.33l15.991,15.991a3.769,3.769,0,0,0,5.33-5.33Z" transform="translate(-212.134 -0.09)" fill="#fff"/>
      </g>
    </g>
    <g id="Group_11094" data-name="Group 11094" transform="translate(0 26.742)">
      <g id="Group_11093" data-name="Group 11093" transform="translate(0)">
        <path id="Path_15769" data-name="Path 15769" d="M22.426,229.318,6.435,213.327a3.769,3.769,0,0,0-5.33,5.33L17.1,234.648a3.769,3.769,0,1,0,5.33-5.33Z" transform="translate(0 -212.223)" fill="#fff"/>
      </g>
    </g>
    <g id="Group_11096" data-name="Group 11096" transform="translate(9.099 9.19)">
      <g id="Group_11095" data-name="Group 11095">
        <rect id="Rectangle_2315" data-name="Rectangle 2315" width="22.615" height="22.615" transform="translate(0 15.991) rotate(-45)" fill="#fff"/>
      </g>
    </g>
    <g id="Group_11098" data-name="Group 11098" transform="translate(51.995 51.833)">
      <g id="Group_11097" data-name="Group 11097">
        <path id="Path_15770" data-name="Path 15770" d="M424.516,414.838l-2.682-2.91-8,8,2.682,2.91a5.654,5.654,0,1,0,8-8Z" transform="translate(-413.839 -411.928)" fill="#fff"/>
      </g>
    </g>
    <g id="Group_11100" data-name="Group 11100" transform="translate(31.983 32.073)">
      <g id="Group_11099" data-name="Group 11099">
        <path id="Path_15771" data-name="Path 15771" d="M267.248,259.342a3.716,3.716,0,0,0-.924-3.589,3.769,3.769,0,0,0-5.331,0l-5.33,5.33a3.769,3.769,0,0,0,0,5.331,3.716,3.716,0,0,0,3.589.924l12.653,12.4,8-8Z" transform="translate(-254.559 -254.648)" fill="#fff"/>
      </g>
    </g>
  </g>
</svg>
